<?xml version="1.0" encoding="UTF-8"?>
<svg xmlns="http://www.w3.org/2000/svg" version="1.1" viewBox="0 0 1280 800">
  <!-- Generator: Adobe Illustrator 28.6.0, SVG Export Plug-In . SVG Version: 1.2.0 Build 709)  -->
  <g>
    <g id="Calque_1">
      <g>
        <path d="M1205.5,709.8c-1.5,12.2-4.5,21.2-9.2,28-114.1-113.1-227.4-225.4-341-338,114.2-113.1,227.8-225.5,341.5-338.1,3.6,4.6,7.6,12.4,8.6,26.3,0,207.2,0,414.5,0,621.7Z" fill="#fff"/>
        <path d="M1147,13.2c-16.2,15.9-32.6,31.7-48.6,47.7-141.9,142.3-283.8,284.6-425.7,426.9-21,21.1-42.2,21.1-63.1,0C454.2,332.1,298.9,176.2,143.5,20.4c-2.6-2.6-5-5.3-9.6-10.3,12.1-5.1,23.1-7.1,35.5-7.7s9.5-.4,14.3-.4c304.9,0,609.8,0,914.7.2,15.8,0,8.8-.3,24.5,1.7,7,1,23.6,7.5,24,9.2Z" fill="#fff"/>
        <path d="M182.7,795.8c-16.2,0-31.9-1.6-47.6-9.7,114-112.9,227.2-225,341.1-337.8,1,1,4,3.5,6.7,6.3,27,27,53.9,54.1,80.9,81.2,45.6,45.7,109,45.6,154.8,0,29.6-29.5,59.4-59,87.7-87.1,113.3,112.2,226.7,224.5,342.3,339-14.5,5.4-24.5,7.4-35.9,7.7" fill="#fff"/>
        <path d="M84.4,737.5c-4.4-12.5-7.3-25.6-7.3-39-.5-199.8-.5-399.6,0-599.4,0-13.2,2.9-27,7.3-38.9,114.6,113.6,228,226.2,341.8,339-113.2,112.1-226.6,224.4-341.7,338.4Z" fill="#fff"/>
      </g>
    </g>
  </g>
</svg>