<?xml version="1.0" encoding="UTF-8"?>
<svg xmlns="http://www.w3.org/2000/svg" version="1.1" viewBox="0 0 1280 800">
  <!-- Generator: Adobe Illustrator 28.6.0, SVG Export Plug-In . SVG Version: 1.2.0 Build 709)  -->
  <g>
    <g id="Calque_1">
      <path d="M633,3.7h13.9c4.9-.3,9.7.9,14.5.5,5.1.4,10.3.9,15.4,1.3,21.3,1.8,42.3,5.5,62.9,10.9,128.3,33.6,230.6,127.7,274.4,252.5,9.1,25.9,15.4,52.5,18.9,79.7,1.3,10.1,2.3,20.3,2.7,30.5-.4,4.4.9,8.8.5,13.2v27.7c-.9.5-.6,1.3-.6,2,0,3.3-.3,6.6-.5,9.9-1.6,20.3-4.7,40.4-9.6,60.2-20.3,82.6-62.3,152.2-126.8,207.7-66.3,57-143.6,88.3-230.7,95-22.3,1.7-44.6,1.2-66.9-1-23.9-2.4-47.4-6.9-70.5-13.6-122.5-35.3-220.9-128-263.4-248.3-13.4-37.8-20.9-76.7-22.4-116.8-.3-9-.7-18-.2-27,0-.5-.1-1.1-.2-1.6.4-.9.3-1.9.4-2.9.2-8.8,1-17.5,1.9-26.3,2.8-26.5,8.3-52.5,16.4-77.9,38.7-120.7,131.5-214.8,251.7-255.1,25.1-8.4,50.7-14.2,77-17.4,9.1-1.1,18.2-1.7,27.2-2.6,4.6.4,9.2-.8,13.9-.5ZM879.9,202.3c-.2-.2-.4-.4-.6-.5-1.1.6-2.1,1.1-3.2,1.7-18.3,10.2-37.6,17.6-58,22.1-3,.7-4.7,0-6.9-2.1-28.3-26.7-61.6-36-99.2-26.6-53.8,13.5-86.9,66.8-76.1,121.3.2.9.6,1.9,0,3.1-41.7-2.2-81.1-12.7-118.2-31.6-37.2-18.9-69-44.7-95.8-77.1-2.1,3.4-3.5,6.4-4.9,9.5-1.5,3.2-2.7,6.5-3.8,9.8-1.1,3.2-2,6.5-2.7,9.8-.8,3.4-1.4,6.9-1.8,10.4-.4,3.4-.7,6.8-.7,10.2,0,3.5,0,7,.2,10.6.2,3.4.7,6.8,1.3,10.1.6,3.5,1.4,6.9,2.4,10.3.9,3.3,2,6.5,3.3,9.7,1.3,3.3,2.7,6.5,4.4,9.6,1.6,3,3.3,6,5.1,8.8,1.9,2.9,4,5.8,6.2,8.6,2.1,2.7,4.4,5.2,6.8,7.7,2.4,2.6,5,5,7.7,7.2,2.6,2.1,5.2,4.1,7.8,6.2-16.3-.2-31.4-4.6-45.9-12.3-.3,16.2,2.9,31.1,9.7,45.2,14.9,30.8,39.4,49.9,72.5,58.3-15,4.1-30,4.5-45.6,1.8,4.2,13.2,10.5,24.6,19.1,34.8,20.2,23.7,46,36,77.1,38-45,34.3-95.6,48.4-151.8,43,.6,1.3,1.6,1.6,2.4,2.1,45.7,28.2,95.3,43,149,44.4,25.3.7,50.3-1.7,75-7.1,41.2-9,78.7-26.2,112.1-52.1,33.2-25.7,59.5-57.3,79.3-94.2,25.5-47.8,38.5-98.7,36.6-153.1,0-2.3.6-3.8,2.5-5.2,18.2-13.5,33.7-29.5,46.7-48,.7-1,1.6-1.9,2-3.7-9.5,4.1-18.8,7.4-28.3,10-9.5,2.6-19.1,4.6-29,5.5,20.9-13.8,35.7-32.3,43.8-55.9Z" fill="#fff"/>
      <path d="M661.4,3.7c0,.2,0,.4,0,.5-4.9.4-9.7-.9-14.5-.5h14.5Z" fill="#fff"/>
      <path d="M619.2,4.3c0-.2,0-.4,0-.5h13.9c-4.6-.3-9.2.9-13.9.5Z" fill="#fff"/>
      <path d="M1035.8,379.3c.2,0,.3,0,.5,0v13.2c.4-4.4-.9-8.8-.5-13.2Z" fill="#fff"/>
    </g>
  </g>
</svg>