<?xml version="1.0" encoding="UTF-8"?>
<svg xmlns="http://www.w3.org/2000/svg" version="1.1" viewBox="0 0 1280 800">
  <!-- Generator: Adobe Illustrator 28.6.0, SVG Export Plug-In . SVG Version: 1.2.0 Build 709)  -->
  <g>
    <g id="Calque_1">
      <path d="M1034,400.7c0,218.8-179.9,395.4-397.3,393.3-215.6-2.1-390.8-179.8-389.6-397.1C248.4,183.5,426,6.8,640.9,7.3c217,.5,393.1,176.8,393.1,393.4ZM636.3,228.1c-25.2-.3-55.3.4-85.4,1.8-28,1.3-56.2,1.1-84,5-23.7,3.4-44.3,12.1-55.9,35-4.2,8.4-6.8,17.4-8.5,26.6-3.7,20.3-3.5,40.8-4.6,61.3-2.5,48.4-2.9,96.7,4.6,144.7,5.5,35.3,20.5,53.2,52,60.9,3,.7,6.1,1.3,9.2,1.8,31.6,5.3,63.5,4.9,95.3,6.4,75.3,3.5,150.6,1.2,225.9-2.7,15.1-.8,30.2-2.3,44.9-6.3,24.7-6.7,40.9-21.8,46.5-47.3,1-4.3,1.9-8.7,2.6-13.1,7.7-48,7.1-96.4,4.6-144.7-1.1-20.7-.9-41.5-4.7-61.9-6.3-33.8-23.3-52.1-55.4-59.1-6.9-1.5-14.1-2.7-21.1-3.1-53.6-3.2-107.3-5.5-165.8-5.3Z" fill="#fff"/>
      <path d="M591.3,473.4v-145.8c41.8,24.4,83,48.3,125.1,72.9-42,24.5-83.1,48.4-125.1,72.9Z" fill="#fff"/>
    </g>
  </g>
</svg>