<?xml version="1.0" encoding="UTF-8"?>
<svg xmlns="http://www.w3.org/2000/svg" version="1.1" viewBox="0 0 1280 800">
  <!-- Generator: Adobe Illustrator 28.6.0, SVG Export Plug-In . SVG Version: 1.2.0 Build 709)  -->
  <g>
    <g id="Calque_1">
      <path d="M647.5,796.4c-220.9-.1-400.2-182.3-396.5-403.5C254.6,176.1,434.6-.9,654.8,3c214.6,3.7,390.1,180.1,389.7,398-.4,217.6-178.8,395.5-397,395.5ZM494.2,609h0c.2.7.3,1.4,1.3.8h0c-.5,1.8,1.2,2.2,2.1,3,37,32.6,80.1,45.4,128.6,37.9,75.8-11.7,130.5-76.7,130.5-153.5s0-110.6,0-165.9c0-1.1-.6-2.5.5-3.1,1-.5,1.8.7,2.6,1.2,33.1,22.4,69.6,34,109.5,35,3.3,0,4.4-.8,4.3-4.1-.1-17.2,0-34.4,0-51.6,0-8.4,0-16.8,0-25.1,0-1.5.2-3.1-2.1-3.1-7.5.2-14.8-1.5-22.2-2.1-.2-.2-.3-.3-.5-.5.7-4.8,0-9.6.3-14.4.2-2.6-.8-3.3-3.3-3.3-18.9-.2-36.5-5.3-53.2-14.2-1-.5-1.8-1.5-3.1-1.2h0c0-.5-.3-.6-.7-.6-1.4-1.1-2.7-2.1-4.1-3.2.3-1-.4-1.5-.9-2.1-17.3-21.2-27.3-45.2-27.2-72.8,0-1.9-.5-2.7-2.5-2.7-6.9.1-13.7.2-20.6.2-.1,0-.3-.2-.4-.3-.8-5.7-1-11.4-.8-17.1,0-2.2-.8-3-3-3-26.3,0-52.5,0-78.8,0-2.2,0-3,.7-3,3,0,27,0,53.9,0,80.9,0,82.6,0,165.2.1,247.8,0,5.3-.3,10.5-1.3,15.7-7.5,37.7-42.3,62.2-80.4,56.6-7-1-13.5-3.7-20.1-5.8-.7-.6-1.3-1.2-2-1.8-.4-.8-.8-1.6-1.3-2.4-10.2-15.3-13.8-31.9-11.3-50.1,5.3-39.1,44.8-67.1,83.5-58.8q8,1.7,8-6.5c0-24.6,0-49.1,0-73.7,0-1.8.3-3.7-2.5-4-7.3-.6-14.6-1.3-22-.7-.1-.1-.2-.2-.3-.3,0-5,0-10.1.2-15.1.1-2.7-.6-3.8-3.5-4.1-14.3-1.6-28.6-1.2-42.8,1-79.8,12.5-136.8,85.6-129.4,166.2,4.2,46.2,25.6,83.1,62.2,111.2.8.6,1.4,1.6,2.6,1.3h0c0,.8.6,1,1.3.8h0c-.1.5.3.6.7.6,1.4,1.2,2.8,2.4,4.2,3.6.1.4.3.6.8.5Z" fill="#fff"/>
      <path d="M487.3,603.4c1-.7,1.1.2,1.3.8-.7.1-1.2,0-1.3-.8Z" fill="#fff"/>
      <path d="M494.2,608.9c.8-.3,1.2,0,1.3.8-1,.7-1.2,0-1.3-.8Z" fill="#fff"/>
      <path d="M789.6,244.7c-.5.1-.7-.2-.7-.6.4,0,.8,0,.7.6Z" fill="#fff"/>
      <path d="M488.6,604.2c.4,0,.6.2.7.6-.4,0-.8,0-.7-.6Z" fill="#fff"/>
      <path d="M493.4,608.5c.4,0,.8-.2.8.5-.4.1-.7,0-.8-.5Z" fill="#fff"/>
    </g>
  </g>
</svg>