<?xml version="1.0" encoding="UTF-8"?>
<svg xmlns="http://www.w3.org/2000/svg" version="1.1" viewBox="0 0 1280 800">
  <!-- Generator: Adobe Illustrator 28.6.0, SVG Export Plug-In . SVG Version: 1.2.0 Build 709)  -->
  <g>
    <g id="Calque_1">
      <path d="M236,313c0-49-2.5-98,1.7-146.9,7.4-85.3,69.3-147.3,154.6-156.1,26.7-2.8,53.5-3,80.3-3,109.6,0,219.1-.1,328.7.1,30.2,0,60.5.3,90.2,8,38.3,9.9,69.6,29.8,93.2,62.4,10.6,14.7,19.2,29.8,24.5,47-21-8.7-43.4-12.1-65.4-17.2-23.7-5.5-48.1-7-71.9-11.6-6.2-1.2-12-.4-17.4,3-2.7,1.7-5.5,2.9-8.7,3.6-19.5,4.1-38.9,0-58.2-1.5-12.1-1-21.6,1.3-25.7,9.9-6.6.1-13.1.5-19.6-1.2.2-.2.4-.4.5-.7,0-.2,0-.7,0-.7-11-.9-22-2.3-32.9.8-59.1.1-118.1,0-177.2.5-28.5.3-56.9,1.6-84.5,10.2-34.2,10.6-61.6,30.2-82,59.7-11.4,16.6-17.9,35.2-23.5,54.3-4-.2-7,1.8-10,4.2-7.4,5.8-14.6,11.9-22.5,17-23.9,15.7-46.2,33.4-66.8,53.2-2.2,2.1-3.9,5.1-7.6,5Z" fill="#fff"/>
      <path d="M765.5,792.3c-1.7.2-3.4.4-5.1.4-113.6-.2-227.2,0-340.8-.8-36-.3-71-6.8-102.4-26.4-28.3-17.7-50.2-41-63.5-71.9,12.5-4.1,23.7-11.1,35.3-17.2,18-9.5,36.7-17.1,56.4-22.8,15.6-4.4,31.2-1,46.7-3.2,0,0-.3,0-.3,0,.6.6,1.2,1.2,1.8,1.8,10.6,6.7,20.5,14.9,31.9,19.8,28.7,12.2,58.8,18.8,90.3,18.3,8.9-.1,17.8-.7,26.6,1.6,2.5,2.9,5.9,1.7,9,1.7,37.8.2,75.5.3,113.3.4,2.8,0,5.7-.6,8.4,1,10.4,6,21,11.8,31.4,17.7,8.4,4.7,16.5,10,18.8,20.1,1,4.5,3.4,7.6,6.3,10.9,7.9,8.7,16.1,17.2,23,26.7,4.9,6.8,12.3,12.4,12.9,21.8Z" fill="#fff"/>
      <path d="M1019.5,468.9c-.2,54.9,2.8,110-1.6,164.8-4.1,50.6-25.6,92.8-67.1,123.3-25.2,18.5-53.5,30-85,32.1-.7-7.4-.7-15-2.1-22.2-6.2-30.9-13.3-61.6-23.4-91.5-1-2.9-2-5.4-5.1-6.5,55-31.2,77.9-81.5,82-141.7,2.3-33.3,1.5-66.8,1.7-100.2.2-36,0-72,0-108,.3-4.2.6-8.5.8-12.7,1.3,8.3,1.2,16.5,1.3,24.8,0,3.1.3,5.8,2.3,8.8,16.1,23.7,35.4,44.9,51.4,68.8,12.4,18.6,26.6,36,38.1,55.2,1.5,2.5,3.3,4.8,6.6,5Z" fill="#fff"/>
      <path d="M1019.5,468.9c-3.3-.2-5-2.5-6.6-5-11.5-19.2-25.7-36.7-38.1-55.2-16-23.9-35.2-45.1-51.4-68.8-2-3-2.3-5.7-2.3-8.8,0-8.2,0-16.5-1.3-24.8-.3,4.2-.6,8.5-.8,12.7-.3-3.4-.8-6.8-.9-10.3-.6-20.1-.8-40.3-4.1-60.3-9.5-56.1-37.2-98.8-90.4-122.6-19.7-8.8-40.6-12.3-61.7-15.3,4.1-8.6,13.6-10.9,25.7-9.9,19.3,1.5,38.7,5.5,58.2,1.5,3.2-.7,6-1.8,8.7-3.6,5.3-3.4,11.1-4.2,17.4-3,23.9,4.6,48.2,6.1,71.9,11.6,22,5.1,44.4,8.5,65.4,17.2,7.2,20,10.3,40.8,10.4,61.8.5,93.1.3,186.2.3,279.3,0,1.1-.2,2.3-.3,3.4Z" fill="#fff"/>
      <path d="M392,650.4c-15.4,2.2-31.1-1.2-46.7,3.2-19.7,5.6-38.4,13.3-56.4,22.8-11.6,6.1-22.7,13.1-35.3,17.2-12.8-27.1-16.9-56.1-17.6-85.6-1.6-68.9-.7-137.8-.3-206.7.2,10,.4,20,.5,30.1,0,22.1,0,44.2-.2,66.4,0,6.9,3.3,6.4,7.5,3.7,7.5-4.8,14.7-9.9,22.2-14.7,21.3-13.7,42.9-26.6,69.8-24.8.5,16.1.7,32.2,1.4,48.4.8,18.6,1.3,37.3,5.7,55.5,7.9,33.1,23.9,61.8,49.4,84.7Z" fill="#fff"/>
      <path d="M835.2,669c3.1,1.1,4.1,3.6,5.1,6.5,10.1,29.9,17.2,60.6,23.4,91.5,1.5,7.3,1.5,14.8,2.1,22.2-10.1,2.4-20.4,2.8-30.7,2.9-23.2.3-46.5.1-69.7.2-.7-9.4-8-15.1-12.9-21.8-6.9-9.5-15.1-18-23-26.7-2.9-3.2-5.3-6.3-6.3-10.9-2.3-10.1-10.4-15.4-18.8-20.1-10.5-5.9-21-11.7-31.4-17.7-2.7-1.6-5.6-1-8.4-1-37.8-.2-75.5-.2-113.3-.4-3,0-6.4,1.2-9-1.7,53.8,0,107.7,0,161.5-.4,23.3-.2,46.7-.7,69.8-3.4,21.4-2.5,42-9.7,61.6-19.1Z" fill="#fff"/>
      <path d="M236.2,431.3c-.2-10-.3-20.1-.5-30.1.1-29.4.2-58.8.3-88.2,3.7.1,5.4-2.9,7.6-5,20.6-19.9,42.9-37.6,66.8-53.2,7.8-5.1,15.1-11.2,22.5-17,3-2.4,6-4.4,10-4.2-1.7,13.4-4.1,26.6-5.1,40.2-1.9,24.2-.7,48.4-2.3,72.5-2.7.6-2.7,2.7-2.5,4.8,1.4,11.9.6,22.8-12.9,27.8-.5.2-.9.8-1.2,1.2-8.3,9.8-18.5,16.9-30.3,22.1-6.3,2.7-11.7,7.3-17.9,10.2-11.9,5.6-21.5,15.4-34.4,19Z" fill="#fff"/>
      <path d="M742.4,109.4c-10.8-.2-21.6-.4-32.3-.6,10.9-3.1,21.9-1.7,32.9-.8,0,0,0,.5,0,.7-.1.2-.3.4-.5.7Z" fill="#fff"/>
      <path d="M391.7,650.5c1.1.1,1.8.7,1.8,1.8-.6-.6-1.2-1.2-1.8-1.8Z" fill="#fff"/>
      <path d="M335.5,346.2c0,38.6,0,77.1,0,115.7-26.8-1.8-48.5,11-69.8,24.8-7.5,4.8-14.7,9.9-22.2,14.7-4.2,2.7-7.5,3.2-7.5-3.7.2-22.1.2-44.3.2-66.4,12.9-3.7,22.5-13.4,34.5-19,6.2-2.9,11.6-7.5,17.9-10.2,11.8-5.2,22-12.3,30.3-22.1.4-.4.7-1,1.2-1.2,13.5-5,14.3-15.9,12.9-27.8-.2-2-.1-4.1,2.5-4.8Z" fill="#fff"/>
      <path d="M388.3,335.8c0-30.8-.3-61.7,6.4-92.1,10.5-47.5,45.8-73.3,88.5-78.5,20.8-2.5,41.8-4.4,62.9-4.4,66.9,0,133.8-1.5,200.7,1.6,20.8,1,41.4,3.8,60.3,13.3,35.9,18,51.7,48.8,56.1,87.3,1.4,12.1,0,24.4,2.4,36.4-3.3,8-.8,16.4-1.6,24.6-.2,2.4.6,5-2.9,6.3-17.7,6.6-35.3,4.3-51.6-2.8-10.4-4.5-21.4-9.6-29.7-17.9-3.9-4-10.8-6.5-9.9-13.9.8-5.8-1.2-10.3-5.4-13.6-19.8-15.7-42.6-17.7-66.5-14.2-63.3-32.5-134.5-18.3-181.4,30.6-6.7,7-11.7,15.5-17.5,23.4-5.1-.5-8.7,2.3-12,5.6-6.2,6.3-13.6,11-22.1,12.7-19.9,3.8-39.9,6.7-60.3,8-10.3.6-16.7.5-15.9-11.8,0-.2-.4-.4-.6-.6ZM817.3,245.1c.9-15.8-10.8-34.7-35.4-35.4-18.2-.5-33.7,15.5-33.9,34.2-.2,18.8,17.6,38.2,34.4,37.6,18.2-.7,34.7-17.9,34.9-36.4Z" fill="#fff"/>
      <path d="M814.1,620.5c-17,10.7-36.1,15.2-55.7,16.2-87.5,4.2-175.1,3.9-262.6-.2-18.4-.8-36.5-5.2-52.8-14.5-31.2-17.9-47-45.9-51.2-80.8-4-33.2-4.1-66.7-3.5-100.1,3.5.1,6.8-.6,10.2-1.2,9.5-1.8,18.7-5,28.5-5.9,17.9-1.7,35.8-1.9,53.8-1.7.4,1.1.8,2.1,1.1,3.2,16.4,66.4,76.9,115.9,149,114.1,9.5-.2,19.6.2,28.5-2.5,21.1-6.4,41.6-14.7,59.4-28.3,2.9,3.2,5.4,6.8,8.7,9.5,17.7,14.4,33,31.2,47.2,49,8,10,14.9,21.6,29.1,23.9,9.6,1.6,13.3,7.9,14,16.8,0,0,0-.1,0-.1-1.9-.2-3.3.3-3.6,2.5Z" fill="#fff"/>
      <path d="M817.6,618.1c-.7-8.9-4.4-15.2-14-16.8-14.2-2.4-21.1-13.9-29.1-23.9-14.2-17.8-29.5-34.5-47.2-49-3.3-2.7-5.8-6.3-8.7-9.5,14.8-12.7,28.3-26.6,38-43.8,18.2-32,24.3-66.1,17.6-102-8.7-47-35.2-81.6-76.3-105.2,23.9-3.5,46.8-1.4,66.5,14.2,4.2,3.3,6.1,7.9,5.4,13.6-1,7.3,5.9,9.9,9.9,13.9,8.3,8.3,19.3,13.5,29.7,17.9,16.4,7,34,9.4,51.6,2.8,3.5-1.3,2.7-3.9,2.9-6.3.8-8.2-1.7-16.6,1.6-24.6.6,77.4,2.8,154.8-1.7,232.1-1.7,29.6-11.5,56.4-33.9,77.3-3.8,3.5-7.5,7.1-12.3,9.3Z" fill="#fff"/>
      <path d="M480.7,432.3c-17.9-.2-35.8,0-53.8,1.7-9.8,1-19,4.1-28.5,5.9-3.4.7-6.7,1.3-10.2,1.2,0-35.1,0-70.3,0-105.4.2.2.6.4.6.6-.8,12.3,5.6,12.5,15.9,11.8,20.3-1.3,40.4-4.2,60.3-8,8.6-1.6,15.9-6.4,22.1-12.7,3.3-3.4,6.9-6.1,12-5.6-20,34.5-25.9,71.3-18.5,110.4Z" fill="#fff"/>
      <path d="M814.1,620.5c.3-2.2,1.7-2.7,3.6-2.5-1.2.8-2.4,1.7-3.6,2.5Z" fill="#fff"/>
      <path d="M533.3,424c-12.9-39.2,7.8-87.7,46.5-109,17.1-9.4,35.2-12.1,55.1-11,50.3,2.9,83.5,43.8,88.4,79.5,3.9,28.3-1.1,54.1-20.1,76.7-6.2,7.3-12.1,14.4-20.3,19.4-2.9-1.2-5.8-2.4-8.8-3.5-13.6-5.2-25.1-14.4-38.9-19.7-32.3-12.3-65.4-20.4-99.7-23.8-.7-2.3-1.3-4.7-2-7,.2-.2.6-.5.6-.5-.3-.4-.6-.7-.9-1.1Z" fill="#fff"/>
      <path d="M535.6,432.5c34.3,3.4,67.4,11.5,99.7,23.8,13.8,5.2,25.2,14.5,38.9,19.7,2.9,1.1,5.8,2.3,8.8,3.5-50.1,38.1-125.9,13.9-147.3-47Z" fill="#fff"/>
      <path d="M533.3,424c.3.4.6.7.9,1.1,0,0-.4.3-.6.5-.3-.5-.4-1-.3-1.6Z" fill="#fff"/>
    </g>
  </g>
</svg>