<?xml version="1.0" encoding="UTF-8"?>
<svg xmlns="http://www.w3.org/2000/svg" version="1.1" viewBox="0 0 1280 800">
  <!-- Generator: Adobe Illustrator 28.6.0, SVG Export Plug-In . SVG Version: 1.2.0 Build 709)  -->
  <g>
    <g id="Calque_1">
      <path d="M1035.8,399.1c0,65.9,0,131.8,0,197.7,0,22.1-.5,44.2-4,66-10.1,64.1-56.4,112.9-119.8,126.7-16.6,3.6-33.6,4.4-50.5,4.9-54.7,1.4-109.4.3-164.1.7-3.1,0-2.8-1.6-2.8-3.6,0-45,0-89.9,0-134.9s0-93.6,0-140.4q0-4.5,4.3-4.5c27.8,0,55.6,0,83.4,0,3,0,3.8-.8,4.2-3.7,4.6-34.9,9.2-69.8,14-104.7.4-3-.1-3.6-3.1-3.6-33,0-65.9,0-98.9.1-3.4,0-4.1-.9-4.1-4.2.2-18.2-.2-36.4.2-54.6.3-15.3,1.8-30.5,8.8-44.4,9.1-18.2,24.2-27.6,44.3-28.8,17.8-1.1,35.7-1.5,53.5-1.3,3.3,0,3.9-1,3.9-4-.1-28.7-.1-57.4,0-86.2,0-3.1-1-3.8-3.7-4.2-21.3-3.6-42.6-7.5-64.3-8-27.3-.7-54.2,2.1-80,11.7-31.1,11.5-52.2,33.7-66.2,63.2-10.8,22.8-15.9,46.9-15.9,72.1,0,28.1-.1,56.3,0,84.4,0,3.2-.7,4.2-4.1,4.2-30.6-.1-61.1,0-91.7-.2-3.1,0-3.7.9-3.7,3.8.1,34.7.1,69.3,0,104,0,3.5,1.1,4,4.2,4,30.2-.1,60.4,0,90.6,0,4.8,0,4.3-.6,4.3,4.5,0,69.1,0,138.2-.1,207.3,0,22.7-.1,45.3,0,68,0,2.8-.4,3.9-3.7,3.9-45.8-.2-91.5,0-137.3-.3-20.5-.2-41-.5-61.1-4.7-54.7-11.4-93.4-42.7-114.7-94.7-7.5-18.3-10.3-37.6-11.4-57.3-1.2-20.5-1.4-40.9-1.4-61.4,0-124.3,0-248.5,0-372.8,0-22.5.4-45.1,4-67.4,10-63.3,54.5-111.1,116.6-126.2,17.6-4.3,35.5-4.7,53.5-5.7,12.6-.7,25.2-.6,37.7-.6,126.3,0,252.7,0,379,0,22.7,0,45.5,0,67.7,4.1,65.2,12.1,107.5,50.1,125.5,114.3,5.1,18.2,5.5,37.1,6.3,55.8,1.4,32.7.4,65.4.6,98.1.2,40.8,0,81.7,0,122.5Z" fill="#fff"/>
    </g>
  </g>
</svg>