<?xml version="1.0" encoding="UTF-8"?>
<svg xmlns="http://www.w3.org/2000/svg" version="1.1" viewBox="0 0 1280 800">
  <!-- Generator: Adobe Illustrator 28.6.0, SVG Export Plug-In . SVG Version: 1.2.0 Build 709)  -->
  <g>
    <g id="Calque_1">
      <g id="Calque_1-2" data-name="Calque_1">
        <g id="Calque_1-2">
          <g>
            <path d="M666,4c25.2,1,49.9,6.4,74.1,12.6,80.1,20.5,147.6,62.5,200.7,125.9,82.7,98.8,111.4,212.5,86.4,338.5-17.4,87.7-61.2,161.5-129.8,219.1-104.9,88-225.2,115.6-357.9,82.8-96.3-23.8-172.2-79.1-228.4-160.7-35.4-51.4-57-108.3-64.9-170.3-1.4-11.2-2.6-22.4-3.9-33.7v-37.4c.4-2.8.9-5.6,1.3-8.4,4-24.7,6-50,12.4-74.1,25.1-95.3,79.3-170.9,160.5-226.7,51.4-35.3,108.3-56.9,170.3-64.8,11.2-1.4,34.1-3.9,47.1-3.9M989,399.8c.6-191.9-155.4-348.1-348.9-349.7-191.6-1.5-349,155.2-350.4,348.9-1.4,191.5,155.8,349,349.3,350,191.9,1,349.5-156.2,350.1-349.2h0Z"/>
            <path d="M495.9,178c25.8,44.6,50.6,87.6,75.5,130.7-26.2,19.3-26.8,46.3-21.4,73.8,9.6,48.1,32.5,89.1,69.8,121.4,13.5,11.7,29,20.3,47.6,19.7,8.2-.2,16.4-3,25.4-4.8,24.2,41.9,49,84.8,74.1,128.3-16.1,9.7-32.3,18.1-50.8,20.9-20,3.1-37.9-3-54.6-13-31.8-19.1-58.3-44.5-82.3-72.5-47.9-55.8-85.2-118.2-112.7-186.4-15-37-26-75.2-29.5-115.1-1.7-19.9-1.8-39.7,8.5-57.8,3.7-6.5,8.2-13,13.8-17.8,11.5-9.7,23.9-18.1,36.7-27.5h-.1Z"/>
            <path d="M596,307.6c-8.2-.4-13.1-3.3-16.2-8.7-23.5-40.6-47-81.2-70.3-121.9-5.1-8.9-2.4-18.2,6.5-23.5,11.8-7.1,23.8-14,35.8-20.7,9.2-5.1,18.7-2.5,24.1,6.7,23.3,40.2,46.6,80.4,69.7,120.7,5.3,9.2,2.8,18.7-6.2,24.2-11.8,7.1-23.8,13.9-35.9,20.6-2.8,1.6-6.2,2.1-7.5,2.6h0Z"/>
            <path d="M790.4,642.9c-8.4,0-13.4-2.7-16.5-8.2-23.6-40.8-47.3-81.6-70.7-122.4-4.9-8.6-2.3-18,6.3-23.1,12-7.2,24.1-14.2,36.4-21,8.9-4.9,18.5-2.3,23.6,6.5,23.5,40.3,46.8,80.8,70.1,121.3,5.3,9.3,2.6,18.6-6.6,24-11.6,6.9-23.4,13.7-35.3,20.3-2.8,1.6-6.1,2.2-7.4,2.6h.1Z"/>
          </g>
        </g>
      </g>
    </g>
  </g>
</svg>