<?xml version="1.0" encoding="UTF-8"?>
<svg xmlns="http://www.w3.org/2000/svg" version="1.1" viewBox="0 0 1000 300">
  <defs>
    <style>
      .cls-1 {
        fill: #c00000;
        stroke: #fff;
        stroke-miterlimit: 10;
        stroke-width: 2px;
      }
    </style>
  </defs>
  <!-- Generator: Adobe Illustrator 28.6.0, SVG Export Plug-In . SVG Version: 1.2.0 Build 709)  -->
  <g>
    <g id="Calque_1">
      <g id="Calque_1-2" data-name="Calque_1">
        <g id="Calque_1-2">
          <g>
            <path class="cls-1" d="M484.1,266.5c.2-1.2.4-2.4.5-3.6,2.8-19.4,5.6-38.8,8.3-58.2,2.7-19.5,5.3-39.1,8.1-58.7.2-1.1,1-2.1,1.5-3.1.5,1.1,1.3,2.1,1.4,3.2,1.9,14.6,3.6,29.3,5.7,43.8,3,20.3,6.3,40.5,9.6,60.8.8,5.3,1.9,10.5,2.9,15.7h74.5c9.1-77.9,18.1-155.6,27.1-233.4h-57.2c0,.4-.2.6-.3.9-1.7,13.1-3.6,26.3-5.2,39.4-1.7,14.4-3.4,28.9-4.8,43.3-1.5,14.9-2.8,29.9-4,44.9-1,11.8-1.7,23.6-2.6,35.4,0,1.2.4,3.1-1.5,3.3-.3,0-1.1-2.1-1.2-3.3-1.4-16.9-2.6-33.7-3.9-50.6-1.2-15.4-2.3-30.8-3.6-46.2-1.5-18-3-36-4.6-54-.4-4.4-.9-8.8-1.3-13.1h-61.4c-1,7.3-2,14.4-2.9,21.5-2.8,23.2-5.8,46.5-8.1,69.7-2.3,22.5-3.9,45.1-5.9,67.6,0,.6,0,1.2-.2,1.7-.3.5-.9.9-1.4,1.4-.3-.5-.9-1-1-1.6-.3-1.9-.3-3.8-.5-5.7-2.1-26.2-4.1-52.3-6.2-78.5-1.8-22.6-3.5-45.1-5.2-67.7-.2-2.8-.5-5.7-.7-8.4h-57.1c9.1,77.9,18.2,155.6,27.3,233.4h73.9Z"/>
            <path class="cls-1" d="M852.3,101.9c0-12.6,0-24.9-2.2-37.1-1.3-7-3.8-13.4-8.9-18.6-5.7-5.7-12.5-9.5-20-12.4-14.2-5.4-28.9-6.5-43.9-5.7-9.9.5-19.6,2.4-28.7,6.5-13.4,6-23.1,15.4-26.3,30.1-3.5,15.8-3.9,31.8-1.1,47.7,2.1,12,7.1,22.8,16.5,30.9,5.1,4.3,10.6,8.2,16.1,12,11.6,8.1,23.3,16,35,24.1,5.7,4,10.3,8.9,11.2,16.2.8,6.7,1.5,13.5,1.5,20.2s-1.1,7.8-2.3,11.5c-1.3,3.9-4.5,6.3-8.7,6.9-5.3.8-12.2-.5-13.4-8.8-.3-1.7-.7-3.3-.7-5-.2-11.1-.3-22.1-.4-33.2v-2.6h-54.4c0,.3-.2.6-.2.9,0,13-.3,26,1.6,38.9,1.1,7.5,2.7,14.9,6.8,21.4,6.3,9.8,15.6,15.8,26.1,20,13.3,5.4,27.3,6.5,41.6,5.8,12.2-.7,23.8-3.4,34.7-9.1,12.3-6.4,20.9-15.6,23.2-29.8,3-18.3,2.8-36.6-.6-54.9-2.2-12-7.4-22.4-17.1-30-8.1-6.5-16.3-12.7-24.9-18.6-8.2-5.7-17-10.6-25.4-16-5.4-3.5-9.9-7.8-11.5-14.5-1.5-6.2-1.7-12.4-1.2-18.7.3-3.5,1.1-7,3.1-10,2.7-3.9,6.6-5.1,11.1-4.5,4.6.6,7.1,3.5,7.8,7.9.3,1.7.6,3.5.7,5.2.2,7.1.2,14.1.3,21.2v2.2h54.6Z"/>
            <path class="cls-1" d="M879.3,33v233.4h103.8v-44.7h-42.2c-2.6,0-2.9-.3-2.9-2.9v-48.2c0-2.7.3-3,3.1-3h35.3v-42.3h-35.4c-2.7,0-3-.3-3-2.9v-41.5c0-2.8.3-3,3-3h37.9v-44.8h-99.7.1Z"/>
            <path class="cls-1" d="M697.4,266.5V33.1h-58.6v233.4h58.6Z"/>
            <path class="cls-1" d="M379,194.5c-1.1,1.5-2.1,2.8-3.1,4.1-.2.3-.5.6-.7,1-1.6,3.3-4.3,5.4-7.8,6.6-1.3.4-2.8.8-3.6,1.8-2.1,2.6-1.5,5.5-.6,8.5.4,1.2.2,2.9-.2,4.1-.5,1.4-1.7,2.6-2.6,4-.8,1.2-.9,2.5-.3,4,.5,1.1.6,2.4,1,3.6.4,1.2.7,3,1.6,3.4,1.3.7,2.9,2.3,4.6.4.4-.4,1.3-.3,2-.6.5-.2,1-.5,1.2-.9.6-1.3,1.1-2.6,1.5-3.9,1.8-5.4,3.6-10.8,5.2-16.2.8-2.8,1.6-5.6,1.3-8.5,0-.7,0-1.7.5-2.1.4-.4,1.4-.3,2-.5-.7-3-1.5-6-2.1-8.7h.1Z"/>
            <path class="cls-1" d="M484.1,266.5h-73.9c-9.1-77.8-18.2-155.5-27.3-233.4h57.1c.2,2.8.5,5.6.7,8.4,1.8,22.6,3.5,45.1,5.2,67.7,2,26.2,4.1,52.3,6.2,78.5.2,1.9.2,3.8.5,5.7,0,.6.6,1.1,1,1.6.5-.5,1.1-.8,1.4-1.4.3-.5.2-1.1.2-1.7,1.9-22.6,3.6-45.1,5.9-67.6,2.4-23.3,5.4-46.5,8.1-69.7.9-7.1,1.9-14.3,2.9-21.5h61.4c.4,4.4.9,8.8,1.3,13.1,1.5,18,3.1,36,4.6,54,1.3,15.4,2.4,30.8,3.6,46.2,1.3,16.9,2.6,33.8,3.9,50.6,0,1.2.9,3.4,1.2,3.3,2-.2,1.4-2.2,1.5-3.3,1-11.8,1.6-23.6,2.6-35.4,1.2-15,2.5-29.9,4-44.9,1.5-14.4,3.1-28.9,4.8-43.3,1.6-13.2,3.4-26.3,5.2-39.4,0-.3.2-.5.3-.9h57.2c-9.1,77.8-18.1,155.6-27.1,233.4h-74.5c-1-5.2-2-10.4-2.9-15.7-3.3-20.2-6.6-40.5-9.6-60.8-2.1-14.6-3.8-29.2-5.7-43.8-.1-1.1-.9-2.1-1.4-3.2-.5,1-1.4,2-1.5,3.1-2.7,19.5-5.3,39.1-8.1,58.7-2.7,19.4-5.5,38.8-8.3,58.2-.2,1.2-.4,2.4-.5,3.6h0Z"/>
            <path class="cls-1" d="M19.7,266.5V33h1.7c23,0,46,0,69,.5,11.1.2,22.2.8,33,3.4,13.6,3.2,24.3,10.1,30.6,23.1,3.1,6.4,4.1,13.3,4.4,20.3.5,12.3.8,24.7.9,37,.1,29,.2,58,0,87,0,9.7-.6,19.5-1.6,29.1-1.8,16.4-10.6,26.2-26.5,30.4-8.5,2.2-17.1,2.8-25.8,2.8-28.2.2-56.3.1-84.5.1h-1.1v-.2h0ZM78.5,149.8v76.2c0,2.7.4,3.1,3.1,2.9,2.4-.1,4.8-.4,7.1-.8,5.7-1,9.5-4.2,10.1-10.3.6-6.6,1.5-13.2,1.5-19.8.2-32.9,0-65.9,0-98.8s-.3-11.4-.8-17.1c-.5-6-3.9-9.4-9.8-10.5-2.5-.5-5-.7-7.6-.8-3.6-.2-3.7,0-3.7,3.5v75.6h.1Z"/>
            <path class="cls-1" d="M383.6,114c-.2,1.3-.4,2.2-.5,3.1-.6,4.4-3.9,7.6-5.4,11.5-2.2,5.6-5.8,10-10.1,14-2,1.9-4.7,3.1-6.7,5-2.7,2.6-5.1,5.6-7.7,8.3-1.4,1.5-3,2.7-4.5,4.1-.3.3-.7.5-.9.9-1.3,2.9-2.4,5.8-3.8,8.6-1.2,2.4-1.2,4.4,1.1,6-1.1,3.3.6,9.7,3,11.9.4.3.7.9.7,1.3.3,4.1.7,8.2.8,12.4,0,2.6-1.9,4.4-3.7,5.8-1.8,1.3-4,2-5.9,3.1-1.1.7-2,1.7-3,2.5-1.9,1.6-3.6,3.4-5.6,4.9-1.7,1.3-1.9,2.6-1,4.6,1,2.1,1.5,4.5,2,6.8.2,1.2.2,2.6-.2,3.7-.3.8-1.4,1.5-2.2,1.9-1.7.9-3.5,1.4-5.2,2.3-1.5.8-2.2,2.1-1.1,3.9.8,1.4-.7,6.1-2,7.4-1.7,1.7-3.4,3.5-4.8,5.4-3.1,4.4-7.1,8-11.8,10.1-2.7,1.2-6,2.1-9.5,1.7-2.2-.3-4.7-.5-7.1.8-1.8,1-4.1,1.2-6.2,1.5-2.2.2-4.6-3.4-4.2-5.7.3-1.8.4-3.6-1.1-5.1s-1.1-1.4-1.5-2.3c-1.5-3.4-3.2-6.5-5.7-9.4-1.9-2.2-2.1-5.9-3-8.9-.8-2.7-1-5.5-1-8.4s-1.1-2-1.7-3.1c-1.2-2.2-2.3-4.4-3.6-6.6-.8-1.4-1.7-2.8-2.6-4-2-2.6-1-5.5-.7-8.1s1.5-5.2,2.4-7.7c.3-.9,1-1.9,1.7-2.5,2.5-2.2,3.3-6.1,1.6-8.9-1-1.6-1.9-3.2-.9-5.2.3-.5.1-1.3,0-1.9-1.5-3.9-2.9-7.8-4.7-11.5-1-2-2.7-3.5-4.1-5.2-1.2-1.4-2.6-2.7-3.8-4.3-1-1.4-2.6-2.7-.6-4.7s.5-2,.7-3c.6-3,1.2-6,1.7-9,0-.5-.2-1.1-.6-1.5-1.1-1.3-2.1-2.6-3.3-3.7-1.7-1.5-3.7-.5-5.6-.3-1.2,0-2.4.4-3.5.4s-1-.4-1.3-.8c-.4-.5-.5-1.2-.8-1.7-1.9-3.4-1.8-4.7-6.4-4.4-2.3.1-4.7,0-6.9.5-1.7.3-3.3,1.2-5,1.9-2,.8-4,1.8-6,2.4-.9.3-2.1,0-3-.2-4.6-1.4-9.2-.9-13.3,1.1-3.3,1.6-5.2-.2-7.4-1.6-3.5-2.3-7-4.8-10.4-7.4-1-.8-1.7-2.2-2-3.4-.6-2.3-1.5-4.2-3.6-5.7-1.7-1.2-2.8-3.1-4.3-4.7-.4-.4-.9-.9-1.5-1-1.6-.5-2.7-1.4-2.2-3.1.7-2.2,0-3.9-1.1-5.2,1.4-5,4.3-9.3,2.7-14.5-.4-1.2-.9-2.3-.1-3.7.3-.5-.5-1.8-1.1-2.5-1.7-2.1-1.7-2.5,0-4.6.5-.6.8-1.3,1.1-2,.7-1.8,1.5-3.5,3.1-4.7.7-.5.9-1.6,1.3-2.5.3-.6.3-1.5.8-1.9,2.9-2.6,3.9-6.8,8.4-8,3.5-.9,6.1-3.9,8-7.1.3-.5.1-1.6-.2-2.2-.8-1.3-.5-2.3.5-3.4.5-.5.7-1.3,1.1-1.8,1-1.1,1.9-2.6,3.1-3,3.5-1.2,5.8-3.3,6.9-6.8.1-.4.4-.7.8-1.3,1.5,2.2,3.5,2.2,5.7,2.1,1.4,0,2.7.4,4.1.3,1.5,0,3.1-.6,4.6-1.1.9-.3,1.7-.8,2.6-1.2,1.1-.5,2.2-1.1,3.4-1.4,1.4-.5,2.9-.9,4.4-1.2,1.2-.3,2.3-.3,3.5-.5,2.4-.4,4.6-1.2,7.2-.1,1.3.5,3.2-.5,4.9-.7,2-.1,4.1,0,6.2,0s2-.6,3-.8c1.5-.3,2.2.2,2.3,2,0,1.3,1,2.5,1.6,4-.6.5-1.4,1.1-2.2,1.7-1.7,1.4-1.6,3,.4,3.9,2.1,1,4.3,1.9,6.4,2.8.4.2.9.3,1.4.4,2.7.3,5.4.6,7.9.9.9,3.2,1.9,3.7,4.5,4.2,2.3.5,4.7,1.4,6.8,2.6,1.7.9,3.1,1,4.5,0s2.5-2.3,1.8-4.3c-.2-.4-.2-1,0-1.4,1-2.3,6.6-3.1,8-1.1,1.3,1.7,3.2,1.1,4.8,1.6.5.2,1.3,0,1.4.2,1,2,2.8,1.3,4.4,1.5,2.4.3,4.9.6,7.1,1.5,2.7,1.2,5,.5,7.1-.9,2.2-1.4,3.9,0,5.8.2,1,.2,2.1.5,3,.4,2.7-.5,5.2,2,4.4,4.8-.3,1.3-.8,2.5-1.3,4.2-1.3-1.9-2.3-3.6-3.6-5.2-.4-.5-1.3-.7-2-1-.2.8-.7,1.7-.5,2.3,2.5,5,5.1,9.9,7.8,14.8.9,1.7,1.9,3.2,2.2,5.3.1,1.1,1.2,2.4,2.2,3.1,2.3,1.6,3.1,3.7,3.1,6.3s.4,1.8.3,2.7c-.2,2.3.8,3.9,2.7,5,2.3,1.4,3.4,3.7,3.5,6.2.2,2.9,2.1,4.4,4.1,5.4,2.8,1.4,4.8,3.4,6.7,5.7.8.9,1.8,1.7,2.8,2.5-1.8,1.9-1.7,1.9.4,3.8.8.7,1.4,1.6,2.1,2.4,1.4,1.6,3,1.3,4.8.8,1.1-.3,2.2-.4,3.3-.6.5,0,1,0,1.4-.3,2.3-1.5,5-1.4,7.6-1.8,1.8-.2,3.5-.9,5.9-1.5h-.3,0Z"/>
            <path class="cls-1" d="M852.3,101.9h-54.4v-2.2c0-7.1-.2-14.1-.3-21.2,0-1.7-.4-3.5-.7-5.2-.7-4.5-3.2-7.3-7.8-7.9-4.5-.6-8.4.6-11.1,4.5-2.1,3-2.8,6.5-3.1,10-.5,6.3-.3,12.5,1.2,18.7,1.6,6.7,6.1,11,11.5,14.5,8.4,5.4,17.1,10.4,25.4,16,8.5,5.9,16.8,12.1,24.9,18.6,9.6,7.7,14.8,18.1,17.1,30,3.4,18.3,3.6,36.6.6,54.9-2.3,14.2-11,23.4-23.2,29.8-10.9,5.7-22.5,8.5-34.7,9.1-14.2.8-28.2-.4-41.6-5.8-10.5-4.2-19.8-10.2-26.1-20-4.2-6.5-5.7-13.9-6.8-21.4-1.9-12.9-1.7-25.9-1.6-38.9,0-.3,0-.5.2-.9h54.4v2.6c0,11.1.2,22.1.4,33.2,0,1.7.4,3.3.7,5,1.3,8.3,8.1,9.6,13.4,8.8,4.2-.6,7.4-2.9,8.7-6.9,1.2-3.7,2.3-7.7,2.3-11.5,0-6.7-.7-13.5-1.5-20.2-.9-7.3-5.5-12.2-11.2-16.2-11.6-8.1-23.4-16-35-24.1-5.5-3.8-11-7.7-16.1-12-9.4-8.1-14.4-18.8-16.5-30.9-2.8-15.9-2.4-31.9,1.1-47.7,3.2-14.8,13-24.1,26.3-30.1,9.1-4.1,18.8-5.9,28.7-6.5,15-.8,29.7.3,43.9,5.7,7.4,2.8,14.3,6.7,20,12.4,5.1,5.2,7.6,11.6,8.9,18.6,2.3,12.2,2.2,24.5,2.2,37.1h-.2Z"/>
            <path class="cls-1" d="M879.3,33h99.7v44.8h-37.9c-2.7,0-3,.3-3,3v41.5c0,2.6.3,2.9,3,2.9h35.4v42.3h-35.3c-2.8,0-3.1.3-3.1,3v48.2c0,2.6.3,2.9,2.9,2.9h42.2v44.7h-103.8V33h-.1Z"/>
            <path class="cls-1" d="M697.4,266.5h-58.6V33.1h58.6v233.4Z"/>
            <path class="cls-1" d="M379,194.5c.7,2.7,1.4,5.7,2.1,8.7-.6.1-1.6,0-2,.5s-.6,1.4-.5,2.1c.3,3-.5,5.8-1.3,8.5-1.6,5.4-3.4,10.8-5.2,16.2-.4,1.3-.9,2.7-1.5,3.9-.2.4-.8.7-1.2.9-.6.3-1.6.1-2,.6-1.8,1.8-3.4.2-4.6-.4-.9-.5-1.2-2.2-1.6-3.4s-.5-2.4-1-3.6c-.6-1.4-.5-2.7.3-4s2-2.5,2.6-4c.5-1.2.6-2.9.2-4.1-1-3-1.5-5.9.6-8.5.8-.9,2.3-1.3,3.6-1.8,3.4-1.2,6.1-3.3,7.8-6.6.2-.3.4-.7.7-1,1-1.3,2-2.6,3.1-4.1h-.1Z"/>
          </g>
        </g>
      </g>
    </g>
  </g>
</svg>